<svg width="27" height="11" viewBox="0 0 27 11" fill="none" xmlns="http://www.w3.org/2000/svg">
<path d="M13.5 6.91675L3.64512 0.999559C3.23424 0.769673 2.69079 0.644523 2.12926 0.650472C1.56773 0.65642 1.03197 0.793004 0.634845 1.03145C0.237723 1.26989 0.0102454 1.59158 0.000337842 1.92874C-0.00956969 2.2659 0.198866 2.59221 0.581732 2.83892L10.6967 8.91228L11.2747 9.25933L11.9683 9.67579C12.3747 9.9195 12.9256 10.0564 13.5 10.0564C14.0744 10.0564 14.6253 9.9195 15.0317 9.67579L26.4183 2.83892C26.8011 2.59221 27.0096 2.2659 26.9997 1.92874C26.9898 1.59158 26.7623 1.26989 26.3652 1.03145C25.968 0.793004 25.4323 0.65642 24.8707 0.650472C24.3092 0.644523 23.7658 0.769674 23.3549 0.99956L13.5 6.91675Z" fill="white"/>
</svg>
