<svg width="109" height="35" viewBox="0 0 109 35" fill="none" xmlns="http://www.w3.org/2000/svg">
<path fill-rule="evenodd" clip-rule="evenodd" d="M11.8312 30.6193V33.0443C11.8312 33.3833 11.9132 33.6323 12.0752 33.7903C12.2372 33.9503 12.4562 34.0293 12.7342 34.0293C13.0072 34.0293 13.2252 33.9503 13.3872 33.7903C13.5492 33.6323 13.6302 33.3833 13.6302 33.0443V30.6193H14.2172V33.0383C14.2172 33.3863 14.1512 33.6713 14.0162 33.8963C13.8802 34.1213 13.6992 34.2883 13.4722 34.3973C13.2462 34.5063 12.9962 34.5613 12.7232 34.5613C12.4452 34.5613 12.1952 34.5063 11.9722 34.3973C11.7492 34.2883 11.5712 34.1213 11.4412 33.8963C11.3112 33.6713 11.2442 33.3863 11.2442 33.0383V30.6193H11.8312ZM69.9314 30.5531C70.3734 30.5531 70.7424 30.6591 71.0384 30.8731C71.3334 31.0881 71.5244 31.3821 71.6134 31.7601H70.9494C70.8904 31.5531 70.7744 31.3911 70.6004 31.2731C70.4284 31.1541 70.2044 31.0951 69.9314 31.0951C69.5254 31.0951 69.2064 31.2261 68.9744 31.4881C68.7404 31.7501 68.6254 32.1121 68.6254 32.5731C68.6254 33.0341 68.7394 33.3941 68.9684 33.6521C69.1974 33.9111 69.5014 34.0401 69.8814 34.0401C70.2654 34.0401 70.5544 33.9311 70.7484 33.7131C70.9404 33.4951 71.0554 33.2061 71.0884 32.8441H70.0364V32.3911H71.6804V34.4941H71.1434L71.0944 33.9241C70.9644 34.1261 70.8024 34.2831 70.6064 34.3941C70.4114 34.5051 70.1554 34.5611 69.8424 34.5611C69.4764 34.5611 69.1584 34.4781 68.8854 34.3111C68.6114 34.1461 68.3994 33.9121 68.2484 33.6151C68.0974 33.3151 68.0214 32.9671 68.0214 32.5671C68.0214 32.1731 68.0984 31.8231 68.2544 31.5211C68.4094 31.2191 68.6294 30.9821 68.9154 30.8091C69.2014 30.6391 69.5394 30.5531 69.9314 30.5531ZM29.7622 30.553C30.1462 30.553 30.4822 30.637 30.7692 30.807C31.0582 30.977 31.2822 31.211 31.4422 31.513C31.6032 31.814 31.6842 32.162 31.6842 32.556C31.6842 32.952 31.6032 33.299 31.4422 33.601C31.2822 33.901 31.0582 34.136 30.7692 34.305C30.4822 34.476 30.1462 34.561 29.7622 34.561C29.3792 34.561 29.0422 34.476 28.7552 34.305C28.4662 34.136 28.2412 33.901 28.0792 33.601C27.9172 33.299 27.8362 32.952 27.8362 32.556C27.8362 32.162 27.9172 31.814 28.0792 31.513C28.2412 31.211 28.4662 30.977 28.7552 30.807C29.0422 30.637 29.3792 30.553 29.7622 30.553ZM7.647 30.553C8.031 30.553 8.367 30.637 8.654 30.807C8.943 30.977 9.167 31.211 9.327 31.513C9.488 31.814 9.568 32.162 9.568 32.556C9.568 32.952 9.488 33.299 9.327 33.601C9.167 33.901 8.943 34.136 8.654 34.305C8.367 34.476 8.031 34.561 7.647 34.561C7.264 34.561 6.927 34.476 6.639 34.305C6.351 34.136 6.126 33.901 5.964 33.601C5.802 33.299 5.721 32.952 5.721 32.556C5.721 32.162 5.802 31.814 5.964 31.513C6.126 31.211 6.351 30.977 6.639 30.807C6.927 30.637 7.264 30.553 7.647 30.553ZM24.6132 30.5535C25.0682 30.5535 25.4392 30.6635 25.7262 30.8845C26.0152 31.1055 26.1982 31.4155 26.2742 31.8145H25.6222C25.5692 31.5895 25.4592 31.4105 25.2892 31.2785C25.1202 31.1445 24.8932 31.0785 24.6082 31.0785C24.2212 31.0785 23.9142 31.2105 23.6902 31.4745C23.4652 31.7375 23.3532 32.1005 23.3532 32.5615C23.3532 33.0195 23.4652 33.3805 23.6902 33.6415C23.9142 33.9025 24.2212 34.0345 24.6082 34.0345C24.8932 34.0345 25.1202 33.9725 25.2892 33.8465C25.4592 33.7215 25.5692 33.5495 25.6222 33.3315H26.2742C26.1982 33.7165 26.0152 34.0165 25.7262 34.2335C25.4392 34.4515 25.0682 34.5605 24.6132 34.5605C24.2312 34.5605 23.8992 34.4755 23.6202 34.3075C23.3412 34.1405 23.1272 33.9055 22.9752 33.6055C22.8242 33.3055 22.7492 32.9575 22.7492 32.5615C22.7492 32.1635 22.8242 31.8135 22.9752 31.5135C23.1272 31.2115 23.3412 30.9765 23.6202 30.8075C23.8992 30.6375 24.2312 30.5535 24.6132 30.5535ZM53.2689 30.6196L54.1819 32.4896L55.0909 30.6196H55.7479L54.4759 33.0646V34.4946H53.8899V33.0646L52.6049 30.6196H53.2689ZM2.1 30.6196L3.013 32.4896L3.922 30.6196H4.579L3.307 33.0646V34.4946H2.721V33.0646L1.436 30.6196H2.1ZM34.0814 30.6196L35.3934 33.1986L36.7004 30.6196H37.3914V34.4946H36.8044V31.6326L35.6194 33.9406H35.1654L33.9754 31.6376V34.4946H33.3884V30.6196H34.0814ZM92.1038 30.6196V32.2796H93.9808V30.6196H94.5678V34.4946H93.9808V32.7606H92.1038V34.4946H91.5168V30.6196H92.1038ZM17.3565 30.6196C17.6635 30.6196 17.9145 30.6706 18.1125 30.7736C18.3095 30.8776 18.4565 31.0156 18.5525 31.1916C18.6485 31.3676 18.6965 31.5606 18.6965 31.7766C18.6965 32.0156 18.6335 32.2336 18.5055 32.4296C18.3775 32.6256 18.1795 32.7656 17.9105 32.8496L18.7355 34.4946H18.0545L17.3015 32.9326H16.6085V34.4946H16.0215V30.6196H17.3565ZM62.3704 30.6191V31.0951H61.2294V34.4941H60.6424V31.0951H59.4964V30.6191H62.3704ZM48.5338 30.6195L50.4778 33.5365V30.6195H51.0648V34.4945H50.4778L48.5338 31.5765V34.4945H47.9478V30.6195H48.5338ZM40.5866 30.6198C40.8886 30.6198 41.1396 30.6688 41.3396 30.7708C41.5376 30.8738 41.6866 31.0098 41.7846 31.1868C41.8826 31.3618 41.9316 31.5598 41.9316 31.7818C41.9316 31.9918 41.8846 32.1838 41.7906 32.3608C41.6956 32.5358 41.5496 32.6748 41.3506 32.7778C41.1506 32.8798 40.8956 32.9328 40.5866 32.9328H39.8166V34.4948H39.2296V30.6198H40.5866ZM98.8676 30.6195V31.0955H96.9906V32.3025H98.7016V32.7665H96.9906V34.0175H98.8676V34.4945H96.4036V30.6195H98.8676ZM101.952 30.6196C102.258 30.6196 102.51 30.6706 102.708 30.7736C102.904 30.8776 103.052 31.0156 103.147 31.1916C103.243 31.3676 103.292 31.5606 103.292 31.7766C103.292 32.0156 103.229 32.2336 103.101 32.4296C102.973 32.6256 102.774 32.7656 102.505 32.8496L103.331 34.4946H102.649L101.897 32.9326H101.204V34.4946H100.617V30.6196H101.952ZM44.9372 30.6194L46.3552 34.4944H45.7352L45.4022 33.5484H43.8182L43.4872 34.4944H42.8672L44.2942 30.6194H44.9372ZM80.4889 30.6195L82.4319 33.5365V30.6195H83.0189V34.4945H82.4319L80.4889 31.5765V34.4945H79.9019V30.6195H80.4889ZM74.0335 30.6195V34.0295H75.7945V34.4945H73.4465V30.6195H74.0335ZM87.3198 30.6195V31.0955H85.4428V32.3025H87.1538V32.7665H85.4428V34.0175H87.3198V34.4945H84.8558V30.6195H87.3198ZM107.499 30.6195V31.0955H105.622V32.3025H107.333V32.7665H105.622V34.0175H107.499V34.4945H105.035V30.6195H107.499ZM78.0638 30.6197V34.4947H77.4768V30.6197H78.0638ZM65.3693 30.6194L66.7873 34.4944H66.1673L65.8343 33.5484H64.2513L63.9193 34.4944H63.2993L64.7273 30.6194H65.3693ZM29.7622 31.078C29.4972 31.078 29.2642 31.138 29.0642 31.256C28.8662 31.374 28.7122 31.543 28.6022 31.765C28.4942 31.986 28.4402 32.25 28.4402 32.556C28.4402 32.863 28.4942 33.126 28.6022 33.348C28.7122 33.571 28.8662 33.74 29.0642 33.858C29.2642 33.975 29.4972 34.035 29.7622 34.035C30.0282 34.035 30.2602 33.975 30.4572 33.858C30.6542 33.74 30.8082 33.571 30.9192 33.348C31.0302 33.126 31.0862 32.863 31.0862 32.556C31.0862 32.25 31.0302 31.986 30.9192 31.765C30.8082 31.543 30.6542 31.374 30.4572 31.256C30.2602 31.138 30.0282 31.078 29.7622 31.078ZM7.647 31.078C7.382 31.078 7.149 31.138 6.949 31.256C6.75 31.374 6.596 31.543 6.487 31.765C6.379 31.986 6.325 32.25 6.325 32.556C6.325 32.863 6.379 33.126 6.487 33.348C6.596 33.571 6.75 33.74 6.949 33.858C7.149 33.975 7.382 34.035 7.647 34.035C7.913 34.035 8.145 33.975 8.342 33.858C8.539 33.74 8.693 33.571 8.804 33.348C8.915 33.126 8.97 32.863 8.97 32.556C8.97 32.25 8.915 31.986 8.804 31.765C8.693 31.543 8.539 31.374 8.342 31.256C8.145 31.138 7.913 31.078 7.647 31.078ZM65.0433 31.3164L64.4173 33.0814H65.6693L65.0433 31.3164ZM44.6102 31.3164L43.9852 33.0814H45.2362L44.6102 31.3164ZM17.3175 31.1116H16.6085V32.4896H17.3235C17.5895 32.4896 17.7835 32.4256 17.9075 32.2966C18.0315 32.1676 18.0935 31.9996 18.0935 31.7936C18.0935 31.5866 18.0325 31.4216 17.9105 31.2976C17.7885 31.1736 17.5915 31.1116 17.3175 31.1116ZM101.913 31.1116H101.204V32.4896H101.918C102.185 32.4896 102.379 32.4256 102.503 32.2966C102.626 32.1676 102.689 31.9996 102.689 31.7936C102.689 31.5866 102.627 31.4216 102.505 31.2976C102.383 31.1736 102.187 31.1116 101.913 31.1116ZM40.5586 31.1008H39.8166V32.4518H40.5586C40.8356 32.4518 41.0346 32.3908 41.1536 32.2718C41.2726 32.1508 41.3336 31.9888 41.3336 31.7818C41.3336 31.5668 41.2726 31.4008 41.1536 31.2808C41.0346 31.1608 40.8356 31.1008 40.5586 31.1008ZM6.001 0.000301361C7.737 0.000301361 9.147 0.566299 10.232 1.6993C10.762 2.2543 11.177 2.9103 11.479 3.6703C11.78 4.4293 11.931 5.2553 11.931 6.1473V7.5933H8.243V6.3633C8.243 5.6403 8.038 5.0143 7.628 4.4833C7.218 3.9533 6.664 3.6883 5.965 3.6883C5.049 3.6883 4.441 3.9723 4.139 4.5373C3.838 5.1043 3.687 5.8213 3.687 6.6893V19.8493C3.687 20.5973 3.85 21.2233 4.176 21.7293C4.501 22.2353 5.085 22.4883 5.929 22.4883C6.17 22.4883 6.429 22.4463 6.706 22.3613C6.983 22.2773 7.243 22.1393 7.484 21.9463C7.701 21.7533 7.882 21.4883 8.026 21.1503C8.171 20.8143 8.243 20.3923 8.243 19.8853V18.6193H11.931V20.2103C11.931 21.0063 11.78 21.7603 11.479 22.4703C11.177 23.1823 10.762 23.8143 10.232 24.3683C9.701 24.9233 9.08 25.3623 8.369 25.6883C7.659 26.0143 6.893 26.1763 6.074 26.1763C5.374 26.1763 4.664 26.0793 3.941 25.8873C3.218 25.6943 2.567 25.3563 1.988 24.8743C1.41 24.3933 0.932999 23.7723 0.559999 23.0133C0.185999 22.2533 0 21.2833 0 20.1023V5.9303C0 5.0863 0.144001 4.3033 0.433001 3.5793C0.723001 2.8563 1.133 2.2303 1.663 1.6993C2.193 1.1693 2.826 0.754301 3.561 0.452301C4.296 0.150301 5.109 0.000301361 6.001 0.000301361ZM21.2586 0C22.0056 0 22.7466 0.132999 23.4816 0.397999C24.2166 0.662999 24.8856 1.049 25.4886 1.555C26.0666 2.085 26.5366 2.748 26.8986 3.543C27.2596 4.339 27.4406 5.255 27.4406 6.291V19.885C27.4406 20.97 27.2596 21.898 26.8986 22.669C26.5366 23.441 26.0666 24.079 25.4886 24.585C24.8856 25.116 24.2166 25.514 23.4816 25.779C22.7466 26.043 22.0056 26.176 21.2586 26.176C20.5106 26.176 19.7696 26.043 19.0346 25.779C18.2996 25.514 17.6426 25.116 17.0646 24.585C16.4616 24.079 15.9796 23.441 15.6186 22.669C15.2566 21.898 15.0756 20.97 15.0756 19.885V6.291C15.0756 5.255 15.2566 4.339 15.6186 3.543C15.9796 2.748 16.4616 2.085 17.0646 1.555C17.6426 1.049 18.2996 0.662999 19.0346 0.397999C19.7696 0.132999 20.5106 0 21.2586 0ZM72.418 0.217098L78.166 25.9591H74.479L73.395 20.4281H68.369L67.283 25.9591H63.596L69.346 0.217098H72.418ZM83.7348 0.217098L89.3028 15.7281H89.3748V0.217098H93.0628V25.9591H89.5918L83.9518 10.4851H83.8788V25.9591H80.1918V0.217098H83.7348ZM99.0276 0.217098L101.993 10.4481H102.065L105.03 0.217098H108.934L103.872 15.0761V25.9591H100.184V15.0761L95.1236 0.217098H99.0276ZM34.5985 0.216999L39.3355 13.848H39.4075L44.1085 0.216999H47.6865V25.959H43.9995V10.304H43.9275L40.2765 21.368H38.4325L34.8155 10.304H34.7435V25.959H31.0555V0.216999H34.5985ZM57.0513 0.2169C58.0643 0.2169 58.9553 0.349899 59.7273 0.614899C60.4983 0.879899 61.1973 1.3509 61.8243 2.0249C62.4513 2.6999 62.8853 3.4899 63.1253 4.3929C63.3673 5.2969 63.4863 6.5209 63.4863 8.0629C63.4863 9.2199 63.4203 10.1959 63.2893 10.9919C63.1563 11.7869 62.8733 12.5349 62.4393 13.2329C61.9343 14.0769 61.2583 14.7339 60.4143 15.2039C59.5703 15.6729 58.4613 15.9089 57.0883 15.9089H55.2083V25.9589H51.5203V0.2169H57.0513Z" fill="#283646"/>
</svg>
