<svg width="126" height="40" viewBox="0 0 126 40" fill="none" xmlns="http://www.w3.org/2000/svg">
<path fill-rule="evenodd" clip-rule="evenodd" d="M71.847 0L83.171 19.612L71.847 39.223H49.203L37.879 19.612L49.203 0H71.847ZM65.669 10.7H55.381L50.235 19.612L55.381 28.523H65.669L70.815 19.612L65.669 10.7ZM111.116 11.3032C111.591 11.3032 112.062 11.3872 112.529 11.5552C112.995 11.7242 113.419 11.9682 113.802 12.2892C114.169 12.6262 114.468 13.0472 114.697 13.5522C114.927 14.0572 115.042 14.6392 115.042 15.2962V16.1232H112.7V15.2962C112.7 14.7302 112.544 14.3132 112.23 14.0452C111.915 13.7772 111.544 13.6432 111.116 13.6432C110.689 13.6432 110.318 13.7772 110.003 14.0452C109.689 14.3132 109.532 14.7302 109.532 15.2962V23.9272C109.532 24.4932 109.689 24.9102 110.003 25.1782C110.318 25.4462 110.689 25.5802 111.116 25.5802C111.544 25.5802 111.915 25.4462 112.23 25.1782C112.544 24.9102 112.7 24.4932 112.7 23.9272V20.8522H110.841V18.7852H115.042V23.9272C115.042 24.6152 114.927 25.2052 114.697 25.6942C114.468 26.1852 114.169 26.5902 113.802 26.9112C113.419 27.2482 112.995 27.5002 112.529 27.6682C112.062 27.8372 111.591 27.9212 111.116 27.9212C110.642 27.9212 110.171 27.8372 109.704 27.6682C109.238 27.5002 108.822 27.2482 108.454 26.9112C108.072 26.5902 107.765 26.1852 107.536 25.6942C107.306 25.2052 107.191 24.6152 107.191 23.9272V15.2962C107.191 14.6392 107.306 14.0572 107.536 13.5522C107.765 13.0472 108.072 12.6262 108.454 12.2892C108.822 11.9682 109.238 11.7242 109.704 11.5552C110.171 11.3872 110.642 11.3032 111.116 11.3032ZM101.109 11.3029C101.584 11.3029 102.054 11.3869 102.521 11.5549C102.988 11.7239 103.412 11.9679 103.795 12.2889C104.162 12.6259 104.461 13.0469 104.689 13.5519C104.92 14.0569 105.035 14.6389 105.035 15.2959V23.9269C105.035 24.6149 104.92 25.2049 104.689 25.6949C104.461 26.1849 104.162 26.5899 103.795 26.9109C103.412 27.2479 102.988 27.4999 102.521 27.6679C102.054 27.8369 101.584 27.9209 101.109 27.9209C100.634 27.9209 100.164 27.8369 99.6969 27.6679C99.2299 27.4999 98.8139 27.2479 98.4469 26.9109C98.0639 26.5899 97.7569 26.1849 97.5289 25.6949C97.2979 25.2049 97.1829 24.6149 97.1829 23.9269V15.2959C97.1829 14.6389 97.2979 14.0569 97.5289 13.5519C97.7569 13.0469 98.0639 12.6259 98.4469 12.2889C98.8139 11.9679 99.2299 11.7239 99.6969 11.5549C100.164 11.3869 100.634 11.3029 101.109 11.3029ZM121.124 11.3029C121.599 11.3029 122.069 11.3869 122.536 11.5549C123.004 11.7239 123.427 11.9679 123.811 12.2889C124.177 12.6259 124.477 13.0469 124.704 13.5519C124.936 14.0569 125.051 14.6389 125.051 15.2959V23.9269C125.051 24.6149 124.936 25.2049 124.704 25.6949C124.477 26.1849 124.177 26.5899 123.811 26.9109C123.427 27.2479 123.004 27.4999 122.536 27.6679C122.069 27.8369 121.599 27.9209 121.124 27.9209C120.649 27.9209 120.179 27.8369 119.712 27.6679C119.245 27.4999 118.829 27.2479 118.462 26.9109C118.079 26.5899 117.772 26.1849 117.544 25.6949C117.313 25.2049 117.199 24.6149 117.199 23.9269V15.2959C117.199 14.6389 117.313 14.0569 117.544 13.5519C117.772 13.0469 118.079 12.6259 118.462 12.2889C118.829 11.9679 119.245 11.7239 119.712 11.5549C120.179 11.3869 120.649 11.3029 121.124 11.3029ZM16 11.4403V13.6433H11.363V18.4413H15.402V20.6443H11.363V25.4423H16V27.7833H9.021V11.4403H16ZM19.3277 11.4406L21.0947 16.2836L22.8847 11.4406H25.3647L22.2417 19.2216L25.6167 27.7836H23.1377L21.0947 22.2746L19.0757 27.7836H16.5947L19.9017 19.2216L16.8487 11.4406H19.3277ZM33.49 11.4407V13.6437H30.781V27.7837H28.439V13.6437H25.73V11.4407H33.49ZM90.9409 11.4406V25.4426H95.5779V27.7836H88.5989V11.4406H90.9409ZM7.759 11.4408V13.6438H5.05V27.7828H2.708V13.6438H0V11.4408H7.759ZM101.109 13.6439C100.681 13.6439 100.31 13.7779 99.9959 14.0449C99.6809 14.3139 99.5249 14.7309 99.5249 15.2959V23.9269C99.5249 24.4929 99.6809 24.9099 99.9959 25.1779C100.31 25.4469 100.681 25.5799 101.109 25.5799C101.537 25.5799 101.908 25.4469 102.222 25.1779C102.537 24.9099 102.693 24.4929 102.693 23.9269V15.2959C102.693 14.7309 102.537 14.3139 102.222 14.0449C101.908 13.7779 101.537 13.6439 101.109 13.6439ZM121.124 13.6439C120.696 13.6439 120.326 13.7779 120.012 14.0449C119.697 14.3139 119.54 14.7309 119.54 15.2959V23.9269C119.54 24.4929 119.697 24.9099 120.012 25.1779C120.326 25.4469 120.696 25.5799 121.124 25.5799C121.552 25.5799 121.924 25.4469 122.238 25.1779C122.553 24.9099 122.708 24.4929 122.708 23.9269V15.2959C122.708 14.7309 122.553 14.3139 122.238 14.0449C121.924 13.7779 121.552 13.6439 121.124 13.6439Z" fill="#283646"/>
</svg>
