<svg width="134" height="65" viewBox="0 0 134 65" fill="none" xmlns="http://www.w3.org/2000/svg">
<path fill-rule="evenodd" clip-rule="evenodd" d="M21.8913 21.2091L43.7823 43.1001L21.8913 64.9921L0.000300407 43.1001L21.8913 21.2091ZM59.8962 42.5866C60.1662 42.5866 60.4022 42.6466 60.6052 42.7656C60.8082 42.8856 60.9662 43.0506 61.0782 43.2626C61.1912 43.4746 61.2482 43.7196 61.2482 43.9966C61.2482 44.2756 61.1912 44.5206 61.0782 44.7326C60.9662 44.9436 60.8082 45.1096 60.6052 45.2286C60.4022 45.3486 60.1662 45.4086 59.8962 45.4086C59.6262 45.4086 59.3892 45.3486 59.1872 45.2286C58.9832 45.1096 58.8252 44.9436 58.7112 44.7326C58.5972 44.5206 58.5402 44.2756 58.5402 43.9966C58.5402 43.7196 58.5972 43.4746 58.7112 43.2626C58.8252 43.0506 58.9832 42.8856 59.1872 42.7656C59.3892 42.6466 59.6262 42.5866 59.8962 42.5866ZM75.4636 42.5866C75.7336 42.5866 75.9696 42.6466 76.1726 42.7656C76.3756 42.8856 76.5336 43.0506 76.6456 43.2626C76.7586 43.4746 76.8156 43.7196 76.8156 43.9966C76.8156 44.2756 76.7586 44.5206 76.6456 44.7326C76.5336 44.9436 76.3756 45.1096 76.1726 45.2286C75.9696 45.3486 75.7336 45.4086 75.4636 45.4086C75.1936 45.4086 74.9566 45.3486 74.7546 45.2286C74.5506 45.1096 74.3926 44.9436 74.2786 44.7326C74.1646 44.5206 74.1076 44.2756 74.1076 43.9966C74.1076 43.7196 74.1646 43.4746 74.2786 43.2626C74.3926 43.0506 74.5506 42.8856 74.7546 42.7656C74.9566 42.6466 75.1936 42.5866 75.4636 42.5866ZM103.739 42.5871C104.05 42.5871 104.31 42.6621 104.518 42.8121C104.691 42.9388 104.814 43.1036 104.886 43.3084L104.923 43.4361H104.456C104.415 43.2911 104.333 43.1771 104.21 43.0941C104.088 43.0101 103.931 42.9691 103.739 42.9691C103.454 42.9691 103.229 43.0601 103.065 43.2451C102.901 43.4291 102.82 43.6841 102.82 44.0091C102.82 44.3341 102.9 44.5871 103.061 44.7681C103.222 44.9511 103.436 45.0421 103.704 45.0421C103.974 45.0421 104.177 44.9651 104.314 44.8111C104.423 44.6887 104.495 44.5343 104.532 44.3469L104.553 44.2001H103.813V43.8811H104.97V45.3611H104.592L104.557 44.9601C104.466 45.1021 104.352 45.2131 104.214 45.2911C104.077 45.3691 103.897 45.4081 103.676 45.4081C103.419 45.4081 103.195 45.3491 103.002 45.2321C102.81 45.1161 102.661 44.9521 102.554 44.7421C102.448 44.5311 102.395 44.2861 102.395 44.0051C102.395 43.7271 102.449 43.4811 102.558 43.2681C102.667 43.0551 102.823 42.8881 103.024 42.7671C103.225 42.6471 103.463 42.5871 103.739 42.5871ZM71.8392 42.5869C72.1592 42.5869 72.4202 42.6649 72.6222 42.8199C72.7914 42.9507 72.9091 43.1232 72.975 43.3403L73.0082 43.4759H72.5492C72.5122 43.3159 72.4342 43.1899 72.3142 43.0979C72.1952 43.0039 72.0352 42.9569 71.8352 42.9569C71.5632 42.9569 71.3472 43.0499 71.1892 43.2349C71.0302 43.4209 70.9512 43.6769 70.9512 44.0009C70.9512 44.3229 71.0302 44.5769 71.1892 44.7609C71.3472 44.9449 71.5632 45.0379 71.8352 45.0379C72.0352 45.0379 72.1952 44.9939 72.3142 44.9049C72.4042 44.8389 72.4706 44.7543 72.5137 44.6516L72.5492 44.5429H73.0082C72.9542 44.8129 72.8252 45.0249 72.6222 45.1779C72.4202 45.3309 72.1592 45.4079 71.8392 45.4079C71.5692 45.4079 71.3362 45.3489 71.1402 45.2299C70.9432 45.1119 70.7922 44.9469 70.6862 44.7359C70.5792 44.5239 70.5262 44.2789 70.5262 44.0009C70.5262 43.7209 70.5792 43.4749 70.6862 43.2629C70.7922 43.0509 70.9432 42.8859 71.1402 42.7659C71.3362 42.6459 71.5692 42.5869 71.8392 42.5869ZM62.8407 42.6337V44.3407C62.8407 44.5787 62.8987 44.7547 63.0127 44.8657C63.1277 44.9787 63.2817 45.0337 63.4767 45.0337C63.6697 45.0337 63.8227 44.9787 63.9367 44.8657C64.0279 44.7769 64.0826 44.6465 64.1009 44.476L64.1077 44.3407V42.6337H64.5207V44.3367C64.5207 44.5807 64.4737 44.7817 64.3787 44.9407C64.2837 45.0987 64.1567 45.2167 63.9967 45.2927C63.8367 45.3697 63.6617 45.4077 63.4687 45.4077C63.2737 45.4077 63.0977 45.3697 62.9407 45.2927C62.7837 45.2167 62.6587 45.0987 62.5667 44.9407C62.4931 44.8135 62.4483 44.6594 62.4333 44.4779L62.4277 44.3367V42.6337H62.8407ZM86.1448 42.6341L87.1428 45.3611H86.7058L86.4718 44.6951H85.3578L85.1238 45.3611H84.6878L85.6928 42.6341H86.1448ZM88.6772 42.6334L90.0452 44.6874V42.6334H90.4582V45.3614H90.0452L88.6772 43.3074V45.3614H88.2642V42.6334H88.6772ZM100.528 42.6341L101.526 45.3611H101.089L100.855 44.6951H99.7407L99.5067 45.3611H99.0707L100.076 42.6341H100.528ZM115.978 42.6332V42.9682H114.657V43.8182H115.861V44.1452H114.657V45.0262H115.978V45.3612H114.244V42.6332H115.978ZM106.626 42.6337V45.0337H107.865V45.3617H106.213V42.6337H106.626ZM66.7303 42.6341C66.9463 42.6341 67.1233 42.6701 67.2633 42.7421C67.4013 42.8151 67.5053 42.9131 67.5723 43.0371C67.6403 43.1601 67.6743 43.2971 67.6743 43.4481C67.6743 43.6171 67.6293 43.7701 67.5393 43.9081C67.4673 44.0185 67.3639 44.1033 67.2282 44.1635L67.1203 44.2041L67.7013 45.3611H67.2223L66.6913 44.2621H66.2043V45.3611H65.7913V42.6341H66.7303ZM119.346 42.6336V43.8026H120.667V42.6336H121.08V45.3616H120.667V44.1416H119.346V45.3616H118.933V42.6336H119.346ZM92.0096 42.6341L92.6526 43.9501L93.2926 42.6341H93.7556L92.8596 44.3551V45.3611H92.4466V44.3551L91.5426 42.6341H92.0096ZM78.503 42.6341L79.427 44.4491L80.347 42.6341H80.833V45.3611H80.42V43.3461L79.586 44.9711H79.267L78.429 43.3501V45.3611H78.016V42.6341H78.503ZM98.4158 42.6336V42.9686H97.6138V45.3616H97.2008V42.9686H96.3938V42.6336H98.4158ZM126.278 42.6341C126.494 42.6341 126.671 42.6701 126.811 42.7421C126.949 42.8151 127.053 42.9131 127.12 43.0371C127.188 43.1601 127.222 43.2971 127.222 43.4481C127.222 43.6171 127.177 43.7701 127.087 43.9081C127.015 44.0185 126.912 44.1033 126.776 44.1635L126.668 44.2041L127.249 45.3611H126.77L126.239 44.2621H125.752V45.3611H125.339V42.6341H126.278ZM109.463 42.6337V45.3617H109.05V42.6337H109.463ZM124.107 42.6332V42.9682H122.786V43.8182H123.99V44.1452H122.786V45.0262H124.107V45.3612H122.373V42.6332H124.107ZM111.17 42.6334L112.538 44.6874V42.6334H112.951V45.3614H112.538L111.17 43.3074V45.3614H110.757V42.6334H111.17ZM130.182 42.6332V42.9682H128.861V43.8182H130.066V44.1452H128.861V45.0262H130.182V45.3612H128.449V42.6332H130.182ZM55.991 42.6341L56.634 43.9501L57.274 42.6341H57.737L56.841 44.3551V45.3611H56.428V44.3551L55.524 42.6341H55.991ZM83.0827 42.6338C83.2947 42.6338 83.4717 42.6688 83.6127 42.7398C83.7527 42.8128 83.8567 42.9088 83.9257 43.0328C83.9947 43.1558 84.0297 43.2958 84.0297 43.4518C84.0297 43.5998 83.9967 43.7348 83.9297 43.8588C83.8637 43.9828 83.7597 44.0808 83.6207 44.1528C83.5149 44.2076 83.3873 44.2421 83.2385 44.2559L83.0827 44.2628H82.5407V45.3608H82.1277V42.6338H83.0827ZM75.4636 42.9566C75.2766 42.9566 75.1126 42.9986 74.9716 43.0816C74.8326 43.1646 74.7236 43.2836 74.6466 43.4406C74.5706 43.5956 74.5326 43.7826 74.5326 43.9966C74.5326 44.2126 74.5706 44.3986 74.6466 44.5546C74.7236 44.7106 74.8326 44.8296 74.9716 44.9126C75.1126 44.9956 75.2766 45.0376 75.4636 45.0376C75.6506 45.0376 75.8136 44.9956 75.9526 44.9126C76.0906 44.8296 76.1996 44.7106 76.2776 44.5546C76.3556 44.3986 76.3946 44.2126 76.3946 43.9966C76.3946 43.7826 76.3556 43.5956 76.2776 43.4406C76.1996 43.2836 76.0906 43.1646 75.9526 43.0816C75.8136 42.9986 75.6506 42.9566 75.4636 42.9566ZM59.8962 42.9566C59.7092 42.9566 59.5452 42.9986 59.4042 43.0816C59.2652 43.1646 59.1562 43.2836 59.0792 43.4406C59.0032 43.5956 58.9652 43.7826 58.9652 43.9966C58.9652 44.2126 59.0032 44.3986 59.0792 44.5546C59.1562 44.7106 59.2652 44.8296 59.4042 44.9126C59.5452 44.9956 59.7092 45.0376 59.8962 45.0376C60.0832 45.0376 60.2462 44.9956 60.3852 44.9126C60.5232 44.8296 60.6322 44.7106 60.7102 44.5546C60.7882 44.3986 60.8272 44.2126 60.8272 43.9966C60.8272 43.7826 60.7882 43.5956 60.7102 43.4406C60.6322 43.2836 60.5232 43.1646 60.3852 43.0816C60.2462 42.9986 60.0832 42.9566 59.8962 42.9566ZM85.9148 43.1251L85.4748 44.3671H86.3558L85.9148 43.1251ZM100.298 43.1251L99.8577 44.3671H100.739L100.298 43.1251ZM126.251 42.9801H125.752V43.9501H126.255C126.442 43.9501 126.579 43.9051 126.666 43.8141C126.753 43.7231 126.797 43.6051 126.797 43.4601C126.797 43.3141 126.754 43.1981 126.668 43.1111C126.582 43.0231 126.443 42.9801 126.251 42.9801ZM66.7033 42.9801H66.2043V43.9501H66.7073C66.8943 43.9501 67.0313 43.9051 67.1183 43.8141C67.2053 43.7231 67.2493 43.6051 67.2493 43.4601C67.2493 43.3141 67.2063 43.1981 67.1203 43.1111C67.0343 43.0231 66.8953 42.9801 66.7033 42.9801ZM83.0627 42.9728H82.5407V43.9238H83.0627C83.2577 43.9238 83.3977 43.8808 83.4817 43.7968C83.5657 43.7118 83.6087 43.5978 83.6087 43.4518C83.6087 43.3008 83.5657 43.1838 83.4817 43.0998C83.3977 43.0148 83.2577 42.9728 83.0627 42.9728ZM71.3375 19.5838C72.5735 19.5838 73.5525 19.8208 74.2735 20.2968C74.9945 20.7728 75.5065 21.4418 75.8065 22.3058C76.0741 23.0738 76.2239 23.9643 76.2539 24.9758L76.2595 25.3608V33.3718C76.2595 34.5288 76.1115 35.5478 75.8185 36.4268C75.5255 37.3068 75.0225 37.9998 74.3085 38.5068C73.5955 39.0148 72.6055 39.2678 71.3375 39.2678C70.0535 39.2678 69.0515 39.0188 68.3305 38.5198C67.6085 38.0198 67.1015 37.3218 66.8085 36.4268C66.5472 35.6312 66.4036 34.7322 66.3749 33.7296L66.3695 33.3488V25.3608C66.3695 24.1888 66.5235 23.1698 66.8325 22.3058C67.1415 21.4418 67.6565 20.7728 68.3785 20.2968C69.0985 19.8208 70.0855 19.5838 71.3375 19.5838ZM60.33 19.5839C61.488 19.5839 62.395 19.8059 63.052 20.2499C63.71 20.6929 64.182 21.3229 64.467 22.1399C64.7203 22.8652 64.8615 23.713 64.8897 24.6826L64.895 25.0519V26.2169H63.183V25.0999C63.183 24.2599 63.115 23.5379 62.981 22.9359C62.846 22.3339 62.573 21.8659 62.161 21.5329C61.748 21.1999 61.147 21.0339 60.354 21.0339C59.483 21.0339 58.828 21.2129 58.393 21.5689C57.956 21.9259 57.663 22.4289 57.513 23.0789C57.3844 23.636 57.3102 24.2681 57.2916 24.9764L57.287 25.3369V33.5389C57.287 34.4889 57.378 35.2819 57.561 35.9159C57.742 36.5499 58.056 37.0249 58.5 37.3429C58.944 37.6589 59.562 37.8169 60.354 37.8169C61.162 37.8169 61.769 37.6439 62.173 37.2949C62.577 36.9459 62.846 36.4589 62.981 35.8329C63.0959 35.2963 63.1622 34.6811 63.1788 33.9874L63.183 33.6339V32.3739H64.895V33.5149C64.895 34.6409 64.764 35.6349 64.502 36.4979C64.241 37.3619 63.781 38.0399 63.123 38.5309C62.466 39.0219 61.534 39.2679 60.33 39.2679C59.031 39.2679 58.029 38.9989 57.323 38.4599C56.617 37.9209 56.13 37.1959 55.861 36.2839C55.6247 35.4868 55.4926 34.6139 55.4633 33.6645L55.457 33.2529V25.5989C55.457 24.4099 55.595 23.3639 55.873 22.4609C56.15 21.5569 56.646 20.8529 57.359 20.3449C58.072 19.8379 59.062 19.5839 60.33 19.5839ZM80.4179 19.7746L84.2219 36.4866L88.0969 19.7746H89.9039L90.3789 39.0306H88.8809L88.5009 23.6966L84.8169 39.0306H83.6519L80.0139 23.7206L79.6339 39.0306H78.1359L78.6119 19.7746H80.4179ZM97.2496 19.7742C98.4066 19.7742 99.3176 19.9882 99.9836 20.4162C100.649 20.8432 101.121 21.4382 101.398 22.1992C101.675 22.9602 101.814 23.8552 101.814 24.8852C101.814 25.7892 101.668 26.6252 101.375 27.3932C101.081 28.1622 100.597 28.7762 99.9236 29.2362C99.3118 29.6535 98.5256 29.8815 97.5658 29.9195L97.2726 29.9252H94.4446V39.0302H92.6366V19.7742H97.2496ZM107.117 19.7744L111.206 39.0304H109.422L108.471 33.8714H103.883L102.909 39.0304H101.149L105.214 19.7744H107.117ZM124.469 19.7742L127.94 30.4712L131.269 19.7742H133.051L128.82 32.6342V39.0302H127.061V32.6342L122.71 19.7742H124.469ZM113.891 19.7744L120.024 34.7258L120.025 19.7744H121.594V39.0304H120.31L114.153 23.9114V39.0304H112.584V19.7744H113.891ZM71.3375 21.0338C70.4815 21.0338 69.8285 21.1968 69.3765 21.5218C68.9255 21.8468 68.6155 22.3108 68.4495 22.9118C68.3064 23.4287 68.2249 24.0205 68.2046 24.6878L68.1995 25.0278V33.7528C68.1995 34.5608 68.2825 35.2708 68.4495 35.8798C68.6155 36.4898 68.9255 36.9658 69.3765 37.3068C69.8285 37.6478 70.4815 37.8168 71.3375 37.8168C72.1775 37.8168 72.8195 37.6478 73.2625 37.3068C73.7065 36.9658 74.0115 36.4898 74.1785 35.8798C74.3216 35.3578 74.4031 34.7616 74.4234 34.0931L74.4285 33.7528V25.0278C74.4285 24.2198 74.3455 23.5148 74.1785 22.9118C74.0115 22.3108 73.7065 21.8468 73.2625 21.5218C72.8195 21.1968 72.1775 21.0338 71.3375 21.0338ZM106.189 22.1744L104.145 32.5634H108.234L106.189 22.1744ZM21.891 0L43.783 21.892L35.299 30.374L21.892 16.967L8.484 30.374L0 21.892L21.891 0ZM96.7736 21.1292H94.4446V28.5702H96.7506C97.5266 28.5702 98.1566 28.4552 98.6396 28.2252C99.1236 27.9962 99.4756 27.6112 99.6986 27.0722C99.9206 26.5342 100.031 25.8042 100.031 24.8852C100.031 23.9032 99.9356 23.1372 99.7456 22.5912C99.5546 22.0452 99.2256 21.6642 98.7586 21.4502C98.2916 21.2362 97.6306 21.1292 96.7736 21.1292Z" fill="#283646"/>
</svg>
